<?xml version="1.0" encoding="UTF-8"?>
<svg width="30px" height="30px" viewBox="0 0 30 30" version="1.1" xmlns="http://www.w3.org/2000/svg" xmlns:xlink="http://www.w3.org/1999/xlink">
    <!-- Generator: Sketch 56.3 (81716) - https://sketch.com -->
    <title>icon_login</title>
    <desc>Created with Sketch.</desc>
    <g id="icon_login" stroke="none" stroke-width="1" fill="none" fill-rule="evenodd">
        <g transform="translate(2.500000, 0.000000)" fill="#33D1FF" fill-rule="nonzero">
            <path d="M12.1666667,24.3333333 C5.46666667,24.3333333 0,18.8666667 0,12.1666667 C0,5.46666667 5.46666667,5.68434189e-14 12.1666667,5.68434189e-14 C18.8666667,5.68434189e-14 24.3333333,5.46666667 24.3333333,12.1666667 C24.3333333,18.8666667 18.8666667,24.3333333 12.1666667,24.3333333 Z M12.1666667,2.66666667 C6.93333333,2.66666667 2.66666667,6.93333333 2.66666667,12.1666667 C2.66666667,17.4 6.93333333,21.6666667 12.1666667,21.6666667 C17.4,21.6666667 21.6666667,17.4 21.6666667,12.1666667 C21.6666667,6.93333333 17.4,2.66666667 12.1666667,2.66666667 Z" id="Fill-2"></path>
            <path d="M9,13.2333333 C8.26666667,13.2333333 7.66666667,12.6333333 7.66666667,11.9 L7.66666667,10.5666667 C7.66666667,9.83333333 8.26666667,9.23333333 9,9.23333333 C9.73333333,9.23333333 10.3333333,9.83333333 10.3333333,10.5666667 L10.3333333,11.9 C10.3333333,12.6333333 9.73333333,13.2333333 9,13.2333333 Z M15.3333333,13.2333333 C14.6,13.2333333 14,12.6333333 14,11.9 L14,10.5666667 C14,9.83333333 14.6,9.23333333 15.3333333,9.23333333 C16.0666667,9.23333333 16.6666667,9.83333333 16.6666667,10.5666667 L16.6666667,11.9 C16.6666667,12.6333333 16.0666667,13.2333333 15.3333333,13.2333333 Z M20.7333333,29.8 C20,29.8 19.4,29.2 19.4,28.4666667 C19.4,26.8 19,25.6 18.1666667,24.8666667 C17.0333333,23.8333333 15.4333333,23.9666667 15.4333333,23.9666667 C14.7,24.0333333 14.0666667,23.5 14,22.7666667 C13.9333333,22.0333333 14.4666667,21.4 15.2,21.3333333 C15.3,21.3333333 17.9666667,21.1 19.9666667,22.9 C21.3666667,24.1666667 22.0666667,26.0666667 22.0666667,28.5 C22.0666667,29.2 21.5,29.8 20.7333333,29.8 L20.7333333,29.8 Z M3.6,29.8 C2.86666667,29.8 2.26666667,29.2 2.26666667,28.4666667 C2.26666667,26 2.96666667,24.1333333 4.36666667,22.8666667 C6.36666667,21.0333333 9.03333333,21.3 9.13333333,21.3 C9.86666667,21.3666667 10.4,22.0333333 10.3333333,22.7666667 C10.2666667,23.5 9.6,24.0333333 8.9,23.9666667 C8.86666667,23.9666667 7.26666667,23.8666667 6.16666667,24.8666667 C5.36666667,25.6 4.93333333,26.8333333 4.93333333,28.4666667 C4.93333333,29.2 4.33333333,29.8 3.6,29.8 Z" id="Fill-1"></path>
        </g>
    </g>
</svg>