<?xml version="1.0" encoding="UTF-8"?>
<svg width="20px" height="20px" viewBox="0 0 20 20" version="1.1" xmlns="http://www.w3.org/2000/svg" xmlns:xlink="http://www.w3.org/1999/xlink">
    <!-- Generator: Sketch 56.3 (81716) - https://sketch.com -->
    <title>icon_ad</title>
    <desc>Created with Sketch.</desc>
    <g id="icon_ad" stroke="none" stroke-width="1" fill="none" fill-rule="evenodd">
        <g fill-rule="nonzero">
            <rect id="Rectangle" fill="#000000" opacity="0" x="0" y="0" width="20" height="20"></rect>
            <g id="Group" fill="#FFFFFF">
                <path d="M13.5,9.39285714 L10.8214286,9.39285714 L10.8214286,6.71428571 C10.8214286,6.31979661 10.501632,6 10.1071429,6 C9.71265375,6 9.39285714,6.31979661 9.39285714,6.71428571 L9.39285714,9.39285714 L6.71428571,9.39285714 C6.31979661,9.39285714 6,9.71265375 6,10.1071429 C6,10.501632 6.31979661,10.8214286 6.71428571,10.8214286 L9.39285714,10.8214286 L9.39285714,13.5 C9.39285714,13.8944891 9.71265375,14.2142857 10.1071429,14.2142857 C10.501632,14.2142857 10.8214286,13.8944891 10.8214286,13.5 L10.8214286,10.8214286 L13.5,10.8214286 C13.8944891,10.8214286 14.2142857,10.501632 14.2142857,10.1071429 C14.2142857,9.71265375 13.8944891,9.39285714 13.5,9.39285714 Z" id="Path"></path>
                <path d="M10,0 C4.47767857,0 0,4.47767857 0,10 C0,15.5223214 4.47767857,20 10,20 C15.5223214,20 20,15.5223214 20,10 C20,4.47767857 15.5223214,0 10,0 Z M10,18.3035714 C5.41517857,18.3035714 1.69642857,14.5848214 1.69642857,10 C1.69642857,5.41517857 5.41517857,1.69642857 10,1.69642857 C14.5848214,1.69642857 18.3035714,5.41517857 18.3035714,10 C18.3035714,14.5848214 14.5848214,18.3035714 10,18.3035714 Z" id="Shape"></path>
            </g>
        </g>
    </g>
</svg>