<?xml version="1.0" encoding="UTF-8"?>
<svg width="30px" height="30px" viewBox="0 0 30 30" version="1.1" xmlns="http://www.w3.org/2000/svg" xmlns:xlink="http://www.w3.org/1999/xlink">
    <!-- Generator: Sketch 56.3 (81716) - https://sketch.com -->
    <title>icon_scan</title>
    <desc>Created with Sketch.</desc>
    <g id="icon_scan" stroke="none" stroke-width="1" fill="none" fill-rule="evenodd">
        <g fill="#33D1FF" fill-rule="nonzero" id="fill">
            <path d="M28.4210527,11.9210526 C27.5526316,11.9210526 26.8421053,11.2105263 26.8421053,10.3421052 L26.8421053,7.89473684 C26.8421053,5.28947368 24.7105263,3.15789473 22.1052632,3.15789473 L19.6578948,3.15789473 C18.7894737,3.15789473 18.0789474,2.44736841 18.0789474,1.57894735 C18.0789474,0.710526279 18.7894737,1.42108547e-14 19.6578948,1.42108547e-14 L22.1052632,1.42108547e-14 C26.4473684,1.42108547e-14 30,3.55263158 30,7.89473684 L30,10.3421052 C30,11.2105263 29.2894737,11.9210526 28.4210527,11.9210526 L28.4210527,11.9210526 Z M22.1052632,30 L19.6578948,30 C18.7894737,30 18.0789474,29.2894737 18.0789474,28.4210527 C18.0789474,27.5526316 18.7894737,26.8421053 19.6578948,26.8421053 L22.1052632,26.8421053 C24.7105263,26.8421053 26.8421053,24.7105263 26.8421053,22.1052632 L26.8421053,19.6578948 C26.8421053,18.7894737 27.5526316,18.0789474 28.4210527,18.0789474 C29.2894737,18.0789474 30,18.7894737 30,19.6578948 L30,22.1052632 C30,26.4473684 26.4473684,30 22.1052632,30 L22.1052632,30 Z M1.57894735,11.9210526 C0.710526279,11.9210526 1.42108547e-14,11.2105263 1.42108547e-14,10.3421052 L1.42108547e-14,7.89473684 C1.42108547e-14,3.55263158 3.55263158,0 7.89473684,0 L10.3421052,0 C11.2105263,0 11.9210526,0.710526316 11.9210526,1.57894735 C11.9210526,2.44736837 11.2105263,3.15789473 10.3421052,3.15789473 L7.89473684,3.15789473 C5.28947368,3.15789473 3.15789473,5.28947368 3.15789473,7.89473684 L3.15789473,10.3421052 C3.15789473,11.2105263 2.44736841,11.9210526 1.57894735,11.9210526 Z M10.3421052,30 L7.89473684,30 C3.55263158,30 0,26.4473684 0,22.1052632 L0,19.6578948 C0,18.7894737 0.710526316,18.0789474 1.57894735,18.0789474 C2.44736837,18.0789474 3.15789473,18.7894737 3.15789473,19.6578948 L3.15789473,22.1052632 C3.15789473,24.7105263 5.28947368,26.8421053 7.89473684,26.8421053 L10.3421052,26.8421053 C11.2105263,26.8421053 11.9210526,27.5526316 11.9210526,28.4210527 C11.9210526,29.2894737 11.2105263,30 10.3421052,30 L10.3421052,30 Z M24,16.5789474 L5.99999999,16.5789474 C5.13157893,16.5789474 4.42105261,15.8684211 4.42105261,15 C4.42105261,14.1315789 5.13157893,13.4210526 5.99999999,13.4210526 L24.0789474,13.4210526 C24.9473684,13.4210526 25.6578947,14.1315789 25.6578947,15 C25.6578947,15.8684211 24.8684211,16.5789474 24,16.5789474 Z"></path>
        </g>
    </g>
</svg>