<?xml version="1.0" encoding="UTF-8"?>
<svg width="20px" height="20px" viewBox="0 0 20 20" version="1.1" xmlns="http://www.w3.org/2000/svg" xmlns:xlink="http://www.w3.org/1999/xlink">
    <!-- Generator: Sketch 60.1 (88133) - https://sketch.com -->
    <title>icon_BluetoothSearch</title>
    <desc>Created with Sketch.</desc>
    <g id="智家精灵2.0" stroke="none" stroke-width="1" fill="none" fill-rule="evenodd">
        <g id="iPhone-8-A-首页-添加设备" transform="translate(-291.000000, -32.000000)">
            <g id="icon_BluetoothSearch" transform="translate(291.000000, 31.000000)">
                <rect id="Rectangle" fill="#D8D8D8" opacity="0" x="0" y="1" width="20" height="20"></rect>
                <path d="M11.6138291,10.5263158 L16.6196443,6.57435645 C17.1611435,6.14685704 17.1173051,5.31239242 16.533993,4.94398478 L10.533993,1.1545111 C9.86812403,0.733962278 9,1.21244506 9,2 L9,8.46276648 L4.61964429,5.00459092 C4.18616551,4.66237083 3.55733733,4.73635061 3.21511723,5.1698294 C2.87289714,5.60330818 2.94687693,6.23213636 3.38035571,6.57435645 L8.38617088,10.5263158 L3.38035571,14.4782751 C2.94687693,14.8204952 2.87289714,15.4493234 3.21511723,15.8828022 C3.55733733,16.316281 4.18616551,16.3902608 4.61964429,16.0480407 L9,12.5898651 L9,20 C9,20.8355082 9.96386827,21.3026007 10.6196443,20.7848828 L16.6196443,16.0480407 C17.1267852,15.6476662 17.1267852,14.8786496 16.6196443,14.4782751 L11.6138291,10.5263158 Z M14.3861709,15.2631579 L11,17.9364507 L11,12.5898651 L14.3861709,15.2631579 Z M11,8.46276648 L11,3.81432658 L14.2711244,5.88029987 L11,8.46276648 Z" id="fill" fill="#183B56" fill-rule="nonzero"></path>
            </g>
        </g>
    </g>
</svg>